<?xml version="1.0" encoding="utf-8"?>
<!-- Generator: Adobe Illustrator 24.0.2, SVG Export Plug-In . SVG Version: 6.00 Build 0)  -->
<svg version="1.1" id="a90b5256-b423-42d1-825d-5fdc0dc55c5f"
	 xmlns="http://www.w3.org/2000/svg" xmlns:xlink="http://www.w3.org/1999/xlink" x="0px" y="0px" viewBox="0 0 377.4 296.6"
	 style="enable-background:new 0 0 377.4 296.6;" xml:space="preserve">
<style type="text/css">
	.st0{fill:#F7C4A7;}
	.st1{fill:#675893;}
	.st2{fill:#E6E6E6;}
	.st3{fill:#383638;}
	.st4{fill:#2E2D2E;}
	.st5{opacity:0.1;enable-background:new    ;}
	.st6{opacity:0.2;enable-background:new    ;}
	.st7{fill:#443A61;}
	.st8{fill:#FFFFFF;}
	.st9{fill:#B3B3B3;}
</style>
<path class="st0" d="M220.4,63.6c-6.3,2.6-9.4,9.8-6.8,16.1l12.1,29.6l16.5-4.4l-4.8-31.7c0-0.1,0-0.1,0-0.2
	c-1.1-6.7-7.5-11.3-14.2-10.2l0,0C222.1,63,221.3,63.3,220.4,63.6z"/>
<path class="st1" d="M244.8,101.8l18.8,46.6l40-46.2c5.4-6.2,14-8.4,21.7-5.6l0,0c0.3,0.1,0.6,0.2,0.8,0.3
	c10,4.2,14.7,15.7,10.5,25.8c-16.6,39.4-43.7,66.6-84.5,77.8c-34-26.1-37.9-59.3-28.8-95.6L244.8,101.8z"/>
<path class="st2" d="M6.3,292.4c-2.4-0.9-4.4-2.7-5.4-5c-2.2-4.8-0.1-10.5,4.8-12.7l68.7-31.3l6,11c-5.6,26.2-28.7,39-66,41
	L6.3,292.4z"/>
<path class="st2" d="M38.7,293.4c-1.6-2.3-1-5.5,1.3-7.1c28.5-10.9,52.4-29.1,74.3-50.9l13,13l-15,24l-1.1,13.2
	c-0.5,6.4-6.1,11.3-12.5,10.8c-17.6-1.2-36.3-1.4-55.6-0.8C41.4,295.7,39.7,294.9,38.7,293.4z"/>
<polygon class="st3" points="107.3,233.4 152.3,186.4 160.3,201.4 126.3,253.4 "/>
<g>
	<polygon class="st4" points="153.1,200.4 110.3,236.2 106.3,232.3 149.6,196.3 	"/>
	<polygon class="st4" points="152.8,212.9 137.2,190.5 141.6,187.5 155.8,208.2 	"/>
</g>
<path class="st3" d="M79.3,258.4l-9-15l73.4-90.2c4.2-4.3,11.1-4.5,15.5-0.3l86.1,65.5l9.5-9.5l65,43
	c-22.4,35.3-51.2,52.5-90.5,39.5c-32-16-56.3-45.8-81-90L79.3,258.4z"/>
<path class="st0" d="M313.3,73.4h31c-1.1,10.5,1.4,21.1,7,30l-38,13C315.3,103.1,315.1,88.6,313.3,73.4z"/>
<path class="st5" d="M347.5,75.7c-4.6-13.6-3.8-2.4-1.2-16.2l-42.4,7.9c0,0-5.3,1.7-4.6,6.8c12.6,20.2,37.1,21,47,2.5
	C346.8,76.4,347.1,76.1,347.5,75.7L347.5,75.7z"/>
<path class="st1" d="M314.3,96.4c-0.4,18.2,15.9,10.6,34,0c53.2,40.8,12.2,134-32,164c-18.9-17.9-46.5-28-72.5-40.5
	c-5.4-2.6-5.8-10.2-11.5-12.5L314.3,96.4z"/>
<path class="st6" d="M257.3,176.1l-2,1.3c7.3,36.7,25.1,65,67,74c32-27.6,44.9-63.8,43-106.5c-0.2-4.6-2.1-9.1-5.2-12.5
	c-7.4-8-19.8-8.5-27.8-1.1c-2.6-2.8-4.5-4.9-5.6-0.8l-16.4,58.9l-36.5-28.5l-18.5,6.5C255.9,170.3,256.6,173.2,257.3,176.1z"/>
<polygon class="st7" points="207.6,66 176,104.3 222.7,159.4 253.8,122.8 "/>
<path class="st8" d="M177.3,104.7L177.3,104.7c0.7-1.3,1.6-2.4,2.6-3.4l29-29.4c0,0,10.1-1.7,12.2,3.4l-37,30.3L177.3,104.7z"/>
<path class="st7" d="M175.8,104.1l42.9,65.6c0,0,4.2,2.9,8.4,1.3l43.9-29.6l-46.6-70.7l-42.1,32.8L175.8,104.1z"/>
<rect x="189.3" y="90.5" transform="matrix(0.8121 -0.5835 0.5835 0.8121 -14.3597 137.2)" class="st1" width="33.1" height="0.7"/>
<rect x="208.9" y="102.4" transform="matrix(0.8341 -0.5517 0.5517 0.8341 -39.4214 137.7583)" class="st1" width="0.7" height="64"/>
<rect x="227.7" y="151.9" transform="matrix(0.8055 -0.5926 0.5926 0.8055 -42.4847 175.0687)" class="st1" width="35.5" height="0.7"/>
<rect x="241.9" y="76.3" transform="matrix(0.8208 -0.5713 0.5713 0.8208 -18.453 157.8142)" class="st1" width="0.7" height="64"/>
<polygon class="st9" points="178.6,103.6 211.6,71.8 211.8,72.1 178.9,103.9 "/>
<polygon class="st9" points="180,103.4 215.1,71.5 215.4,71.8 180.3,103.7 "/>
<polygon class="st9" points="181.8,102.9 217.9,72.4 218.2,72.7 182.1,103.2 "/>
<path class="st0" d="M235,135.4c-4.6,5-4.3,12.9,0.8,17.5l23.6,21.6l13-11l-18-26.6l-0.1-0.1c-3.9-5.6-11.6-7-17.2-3.1l0,0
	C236.3,134.1,235.6,134.7,235,135.4z"/>
<path class="st1" d="M273.4,159.3l36.9,34l16.4-58.9c2.2-7.9,9-13.6,17.2-14.3l0,0c0.3,0,0.6,0,0.9-0.1c10.9-0.5,20.1,7.9,20.6,18.8
	c1.9,42.7-10.9,78.9-43,106.5c-41.9-9-59.7-37.3-67-74L273.4,159.3z"/>
<path class="st0" d="M322.3,19.4c18.8,0,34.1,15.2,34,34c-0.1,18.8-16.3,36.3-33.8,35.9c-17.8-0.4-30.1-18.7-32.5-36.6
	C287.4,34.1,303.5,19.4,322.3,19.4z"/>
<path class="st3" d="M356,67.6l-5.9-1l-11.8-26.5c-21.4-2-36.8,1.9-54.1,13l0.3-10.5c1-20.1,14-33.7,34.1-33.8l0,0
	c20.9-0.1,38,16.7,38.1,37.6c0,0.5,0,0.9,0,1.4L356,67.6z"/>
</svg>
